<?xml version="1.0" standalone="no"?>
<!DOCTYPE svg PUBLIC "-//W3C//DTD SVG 20010904//EN"
 "http://www.w3.org/TR/2001/REC-SVG-20010904/DTD/svg10.dtd">
<svg version="1.0" xmlns="http://www.w3.org/2000/svg"
 width="661.000000pt" height="377.000000pt" viewBox="0 0 661.000000 377.000000"
 preserveAspectRatio="xMidYMid meet">

<g transform="translate(0.000000,377.000000) scale(0.100000,-0.100000)"
fill="#ffffff" stroke="none">
<path d="M3045 3004 c-341 -35 -628 -166 -850 -389 -364 -364 -456 -898 -233
-1350 63 -127 125 -213 233 -321 244 -245 550 -378 905 -391 385 -15 747 124
1010 387 236 235 352 510 353 835 1 249 -59 446 -198 656 -186 280 -488 477
-840 548 -98 20 -300 33 -380 25z m365 -79 c494 -99 878 -464 976 -928 88
-420 -88 -862 -451 -1134 -94 -71 -259 -154 -377 -192 -244 -77 -523 -82 -774
-11 -263 73 -531 263 -682 483 -274 400 -267 913 20 1299 70 95 231 244 332
307 155 96 348 166 531 190 93 13 331 5 425 -14z"/>
<path d="M2938 2790 c-48 -10 -110 -26 -138 -35 l-50 -17 0 -73 0 -73 48 18
c26 10 57 21 70 24 l22 7 0 -363 -1 -363 -330 -179 c-182 -98 -334 -174 -338
-170 -11 12 -31 143 -31 201 0 45 19 171 35 236 l7 28 -73 -3 -74 -3 -12 -55
c-23 -98 -27 -255 -9 -358 17 -96 63 -252 75 -252 6 0 660 352 829 446 l62 35
0 484 c0 267 -1 485 -2 484 -2 0 -42 -9 -90 -19z"/>
<path d="M3152 2582 l3 -226 480 -261 480 -260 3 -74 c3 -70 -11 -197 -22
-208 -4 -5 -166 82 -803 428 l-143 77 0 -76 0 -77 323 -175 c177 -96 407 -221
511 -277 104 -57 193 -100 197 -96 11 13 49 131 65 207 21 97 22 336 1 351 -8
5 -227 125 -486 265 l-471 255 0 113 c0 72 4 112 11 112 28 0 161 -35 219 -58
54 -22 303 -153 538 -284 l54 -29 -32 47 c-18 25 -62 78 -99 116 -194 206
-457 327 -764 352 l-67 5 2 -227z"/>
<path d="M3005 1706 l-130 -71 -3 -148 c-1 -90 -6 -147 -13 -147 -5 0 -68 32
-139 70 l-129 70 -205 -111 -206 -111 16 -27 c9 -14 26 -39 39 -55 l23 -29
167 90 167 90 139 -75 139 -75 0 -149 c0 -81 -2 -148 -5 -148 -2 0 -34 16 -69
36 l-66 36 -70 -38 c-38 -21 -67 -41 -62 -45 28 -28 269 -109 364 -123 l48 -7
2 179 3 179 265 -143 c146 -79 272 -144 281 -144 23 0 172 74 242 121 79 54
195 165 258 248 27 35 49 67 49 72 0 4 -26 22 -57 40 l-57 33 -20 -29 c-92
-128 -216 -238 -346 -308 l-65 -36 -277 151 -278 151 0 151 0 151 69 37 68 38
209 -114 209 -113 67 36 c37 20 68 38 68 41 -1 7 -546 300 -556 299 -5 -1 -67
-33 -139 -73z"/>
</g>
</svg>
